<svg width="24" height="24" viewBox="0 0 24 24" fill="none" xmlns="http://www.w3.org/2000/svg">
<path fill-rule="evenodd" clip-rule="evenodd" d="M7.5 0H16.5C18.4891 0.000289251 20.3965 0.790559 21.803 2.19701C23.2094 3.60348 23.9997 5.51097 24 7.5V16.5C23.9997 18.4891 23.2094 20.3965 21.803 21.803C20.3965 23.2094 18.4891 23.9997 16.5 24H7.5C5.51097 23.9997 3.60348 23.2094 2.19701 21.803C0.790559 20.3965 0.000289251 18.4891 0 16.5V7.5C0.000289251 5.51097 0.790559 3.60348 2.19701 2.19701C3.60348 0.790559 5.51097 0.000289251 7.5 0ZM16.5 21.7505C17.8919 21.7491 19.2264 21.1956 20.2107 20.2115C21.1951 19.2274 21.7488 17.893 21.7505 16.5011V7.5C21.7488 6.10829 21.1952 4.77408 20.2111 3.78999C19.2271 2.80589 17.8928 2.25228 16.5011 2.25055H7.5C6.10829 2.25228 4.77408 2.80589 3.78999 3.78999C2.80589 4.77408 2.25228 6.10829 2.25055 7.5V16.5C2.25199 17.8921 2.80563 19.2267 3.78999 20.2111C4.77434 21.1955 6.109 21.7491 7.50109 21.7505H16.5Z" fill="#111010"/>
</svg>
